<?xml version="1.0" standalone="no"?>
<!DOCTYPE svg PUBLIC "-//W3C//DTD SVG 20010904//EN"
 "http://www.w3.org/TR/2001/REC-SVG-20010904/DTD/svg10.dtd">
<svg version="1.0" xmlns="http://www.w3.org/2000/svg"
 width="1692.000000pt" height="1692.000000pt" viewBox="0 0 1692.000000 1692.000000"
 preserveAspectRatio="xMidYMid meet">

<g transform="translate(0.000000,1692.000000) scale(0.100000,-0.100000)"
fill="#000000" stroke="none">
<path d="M9255 16737 c-88 -84 -273 -257 -410 -386 -549 -513 -1243 -1234
-1656 -1716 -683 -799 -1257 -1678 -1610 -2462 -351 -782 -540 -1536 -568
-2275 -16 -412 8 -720 96 -1215 l6 -32 -78 26 c-629 211 -1025 876 -1146 1923
-33 289 -42 518 -36 895 9 509 47 913 133 1388 14 77 23 142 20 145 -4 3 -21
-8 -39 -24 -17 -17 -63 -59 -102 -94 -526 -479 -998 -1297 -1276 -2210 -154
-506 -252 -1042 -289 -1588 -22 -336 -9 -906 30 -1252 57 -509 182 -1062 335
-1479 4 -9 28 7 78 51 365 326 823 661 1257 920 243 146 476 271 508 273 15 1
70 10 122 20 179 33 384 4 549 -80 l69 -34 47 55 c63 74 163 153 255 203 87
47 418 165 681 244 796 239 1594 357 2416 357 610 0 1113 -50 1703 -171 309
-63 874 -214 889 -237 3 -6 40 -32 81 -60 167 -112 299 -279 360 -457 13 -38
22 -49 36 -48 11 2 71 3 134 3 200 1 263 -18 605 -185 675 -328 1254 -706
1808 -1179 65 -56 121 -102 125 -104 4 -1 13 10 19 25 6 16 41 102 78 193 114
282 235 670 272 870 26 143 23 392 -5 538 -44 218 -120 406 -239 587 -48 72
-105 138 -207 240 l-141 140 -7 -40 c-42 -259 -99 -444 -204 -663 -135 -283
-324 -520 -540 -675 -29 -20 -54 -37 -57 -37 -3 0 19 96 49 213 164 638 292
1327 344 1852 63 640 55 1192 -26 1725 -198 1302 -843 2314 -1954 3068 -74 51
-178 130 -230 177 -52 47 -107 95 -122 106 l-27 20 30 -88 c72 -211 142 -531
175 -798 21 -176 30 -654 15 -827 -54 -607 -214 -1102 -484 -1503 l-61 -90
-14 65 c-77 368 -242 810 -594 1590 -597 1324 -778 1780 -933 2360 -105 391
-155 724 -162 1086 -7 312 10 513 63 772 3 17 3 32 -2 31 -5 0 -81 -68 -169
-152z"/>
<path d="M5313 16779 c18 -74 29 -259 24 -399 -10 -248 -50 -458 -133 -701
-58 -170 -116 -299 -235 -521 -112 -208 -153 -300 -209 -463 -82 -239 -116
-463 -107 -705 14 -361 128 -652 350 -887 65 -68 164 -153 178 -153 2 0 4 93
5 208 0 168 4 229 22 322 47 253 132 491 263 735 126 236 203 400 252 535 232
641 183 1266 -138 1745 -65 96 -187 239 -240 279 l-38 29 6 -24z"/>
<path d="M14355 10374 c31 -74 55 -151 70 -224 24 -120 17 -341 -18 -505 -14
-66 -28 -154 -32 -195 -7 -82 7 -225 31 -308 17 -62 82 -202 93 -202 17 0 125
160 166 245 177 363 138 783 -96 1039 -50 55 -107 100 -183 146 -36 22 -39 22
-31 4z"/>
<path d="M8435 8114 c-830 -27 -1610 -165 -2374 -421 -287 -95 -391 -136 -468
-185 -91 -57 -182 -160 -234 -265 -24 -48 -45 -90 -46 -92 -1 -2 -31 23 -67
55 -77 71 -183 127 -297 155 -117 30 -280 24 -393 -15 -129 -44 -544 -285
-836 -484 -1050 -718 -1883 -1616 -2518 -2717 -126 -219 -372 -714 -402 -810
-30 -95 -37 -245 -16 -345 49 -237 235 -441 467 -515 242 -76 508 -13 691 166
33 32 62 59 63 59 2 0 6 -13 10 -28 16 -74 -78 -30 2546 -1201 1361 -608 2536
-1133 2611 -1168 127 -58 142 -63 207 -63 93 0 167 28 226 86 81 79 121 207
95 304 -13 50 -1908 5004 -1945 5087 -31 69 -85 105 -166 111 -52 4 -70 -1
-169 -42 -458 -192 -960 -472 -1367 -762 -344 -246 -614 -475 -929 -789 -288
-287 -483 -510 -704 -805 -106 -143 -106 -140 11 55 632 1059 1569 1956 2654
2541 179 96 302 234 365 408 l11 29 37 -34 c127 -120 304 -189 481 -189 l70 0
-15 -35 c-23 -57 -17 -106 32 -232 237 -612 1963 -5134 1968 -5154 3 -15 20
-48 38 -75 117 -173 351 -194 498 -45 l54 56 1109 2485 c806 1804 1111 2498
1114 2532 5 38 0 59 -21 103 -15 30 -39 63 -54 74 -56 40 -456 188 -732 272
-773 235 -1609 343 -2398 310 -273 -12 -564 -38 -780 -70 -68 -9 -119 -14
-115 -10 14 12 386 98 586 135 200 36 482 75 697 94 197 18 760 24 970 11 537
-34 1058 -124 1540 -266 125 -37 220 -55 288 -55 83 0 210 33 328 86 7 3 13
-20 18 -67 14 -150 91 -311 200 -418 l55 -55 -37 -17 c-44 -20 -77 -49 -96
-87 -7 -15 -521 -1163 -1141 -2552 -620 -1389 -1138 -2546 -1151 -2572 -69
-137 -44 -290 64 -390 69 -63 122 -83 222 -82 l85 0 2540 973 c1397 535 2554
984 2571 997 41 30 74 99 74 153 0 52 -40 157 -157 406 -496 1063 -1276 2024
-2220 2733 -62 46 -113 86 -113 89 0 5 -1 6 80 -42 903 -530 1685 -1266 2260
-2125 111 -165 254 -402 325 -535 101 -190 197 -289 350 -365 117 -58 194 -73
345 -68 109 4 136 9 209 36 229 86 396 274 452 508 17 72 20 109 16 194 -7
147 -36 228 -155 440 -782 1387 -1927 2502 -3332 3244 -210 111 -487 241 -566
266 -142 44 -310 34 -458 -26 -33 -13 -61 -24 -63 -24 -2 0 -3 26 -3 58 -1
166 -97 366 -237 492 -115 103 -289 167 -743 274 -451 107 -913 176 -1370 205
-177 12 -596 20 -745 15z m903 -2411 c117 -87 67 -268 -77 -280 -80 -7 -150
49 -165 133 -9 47 26 120 74 152 29 20 45 23 88 20 32 -3 64 -13 80 -25z
m-1463 -67 c269 -72 447 -350 391 -613 -44 -209 -209 -382 -405 -424 -79 -17
-234 -7 -302 20 -240 93 -386 349 -340 596 35 188 202 371 381 419 70 19 210
20 275 2z m1682 -992 c52 -19 125 -97 141 -152 37 -122 -26 -259 -143 -308
-51 -21 -138 -21 -193 1 -52 21 -124 99 -140 153 -51 168 90 346 258 325 19
-2 54 -11 77 -19z m-4738 -21 c51 -38 73 -83 69 -139 -5 -60 -33 -105 -82
-128 -156 -74 -299 116 -183 243 49 53 141 64 196 24z m7158 -187 c247 -65
412 -311 383 -566 -12 -95 -20 -124 -62 -202 -134 -251 -456 -348 -713 -215
-72 38 -183 145 -215 207 -65 128 -84 260 -55 381 72 302 361 474 662 395z
m-6161 -389 c81 -42 137 -135 137 -227 0 -95 -50 -176 -138 -223 -56 -30 -164
-30 -221 0 -48 26 -100 82 -122 132 -20 47 -18 135 3 189 20 49 98 123 147
140 44 15 156 9 194 -11z m-1646 -441 c297 -103 440 -455 299 -737 -64 -128
-175 -223 -314 -270 -95 -31 -222 -32 -320 -1 -369 113 -495 576 -235 865 76
85 202 153 315 171 63 9 186 -4 255 -28z m4275 -140 c165 -44 308 -187 344
-347 15 -63 13 -186 -3 -240 -60 -198 -221 -328 -426 -345 -130 -11 -251 33
-353 126 -154 141 -196 365 -102 556 58 120 186 224 311 253 59 14 173 12 229
-3z m4841 -147 c57 -27 88 -77 88 -141 0 -82 -69 -148 -154 -148 -161 0 -211
218 -67 289 53 26 80 26 133 0z m-7271 -833 c237 -63 392 -296 355 -532 -16
-104 -58 -185 -137 -263 -73 -72 -125 -101 -218 -126 -244 -63 -499 84 -570
329 -13 43 -16 85 -13 155 3 86 7 105 41 174 63 133 194 240 327 266 68 13
159 12 215 -3z m4899 -24 c266 -96 390 -408 261 -661 -95 -189 -334 -300 -530
-247 -169 45 -296 164 -345 325 -78 252 73 524 331 596 74 21 206 14 283 -13z
m1744 -28 c84 -42 142 -132 142 -220 0 -90 -64 -190 -145 -228 -209 -99 -429
120 -331 330 59 127 209 180 334 118z"/>
<path d="M15390 6504 c-211 -56 -367 -203 -442 -414 -29 -80 -36 -254 -14
-340 37 -146 128 -286 239 -363 124 -87 230 -120 382 -119 238 1 445 127 550
336 80 160 93 316 40 484 -67 210 -234 367 -447 417 -80 19 -236 18 -308 -1z
m300 -101 c238 -65 405 -300 386 -544 -17 -239 -180 -428 -417 -484 -119 -28
-223 -14 -346 46 -117 56 -209 156 -259 279 -36 87 -45 238 -19 325 51 176
162 301 321 361 120 45 215 50 334 17z"/>
<path d="M15482 6239 c-111 -19 -182 -74 -231 -179 -22 -48 -26 -68 -26 -160
0 -58 6 -123 12 -146 29 -95 115 -180 207 -205 60 -17 165 -14 223 5 67 22
126 75 159 142 15 30 24 57 21 60 -3 3 -25 11 -50 19 -44 13 -45 13 -51 -11
-9 -35 -63 -92 -109 -116 -32 -16 -54 -19 -108 -16 -58 3 -74 8 -106 34 -21
17 -49 51 -63 75 -22 39 -25 55 -25 149 0 89 3 111 22 147 70 130 238 162 333
64 19 -20 40 -44 45 -53 9 -15 16 -16 57 -7 l48 11 -16 36 c-47 114 -190 177
-342 151z"/>
</g>
</svg>
